<svg version="1.1" id="Layer_1" xmlns="http://www.w3.org/2000/svg" xmlns:xlink="http://www.w3.org/1999/xlink" x="0px" y="0px"
	 width="922px" height="609px" viewBox="0 0 922 609" enable-background="new 0 0 922 609" xml:space="preserve">
	 <style type="text/css">
	 text { font-family: Inconsolata, Courier, monospace; }
	 text#content { font-family: Avenir; font-weight: 800; }
	 </style>
<g>
	<rect x="184" y="122" fill="#FFFFFF" width="544" height="358"/>
	<g>
		<polyline fill="none" stroke="#000000" stroke-miterlimit="10" points="728,476 728,480 724,480 		"/>
		<line fill="none" stroke="#000000" stroke-miterlimit="10" stroke-dasharray="8,8" x1="716" y1="480" x2="192" y2="480"/>
		<polyline fill="none" stroke="#000000" stroke-miterlimit="10" points="188,480 184,480 184,476 		"/>
		
			<line fill="none" stroke="#000000" stroke-miterlimit="10" stroke-dasharray="8.1395,8.1395" x1="184" y1="467.86" x2="184" y2="130.07"/>
		<polyline fill="none" stroke="#000000" stroke-miterlimit="10" points="184,126 184,122 188,122 		"/>
		<line fill="none" stroke="#000000" stroke-miterlimit="10" stroke-dasharray="8,8" x1="196" y1="122" x2="720" y2="122"/>
		<polyline fill="none" stroke="#000000" stroke-miterlimit="10" points="724,122 728,122 728,126 		"/>
		
			<line fill="none" stroke="#000000" stroke-miterlimit="10" stroke-dasharray="8.1395,8.1395" x1="728" y1="134.14" x2="728" y2="471.931"/>
	</g>
</g>
<rect x="191.065" y="132" fill="#FFFFFF" stroke="#000000" stroke-width="3" stroke-miterlimit="10" width="529.085" height="339"/>
<rect x="238.165" y="189" fill="#D1D3D4" stroke="#000000" stroke-miterlimit="10" width="434.886" height="230"/>
<g>
	<g>
		<polyline fill="none" stroke="#000000" stroke-miterlimit="10" points="826,557 826,561 822,561 		"/>
		
			<line fill="none" stroke="#000000" stroke-miterlimit="10" stroke-dasharray="8.0549,8.0549" x1="813.945" y1="561" x2="93.027" y2="561"/>
		<polyline fill="none" stroke="#000000" stroke-miterlimit="10" points="89,561 85,561 85,557 		"/>
		
			<line fill="none" stroke="#000000" stroke-miterlimit="10" stroke-dasharray="7.9365,7.9365" x1="85" y1="549.063" x2="85" y2="60.968"/>
		<polyline fill="none" stroke="#000000" stroke-miterlimit="10" points="85,57 85,53 89,53 		"/>
		
			<line fill="none" stroke="#000000" stroke-miterlimit="10" stroke-dasharray="8.0549,8.0549" x1="97.055" y1="53" x2="817.973" y2="53"/>
		<polyline fill="none" stroke="#000000" stroke-miterlimit="10" points="822,53 826,53 826,57 		"/>
		
			<line fill="none" stroke="#000000" stroke-miterlimit="10" stroke-dasharray="7.9365,7.9365" x1="826" y1="64.937" x2="826" y2="553.031"/>
	</g>
</g>
<text transform="matrix(1 0 0 1 309.0151 331.0117)" id="content" font-size="24">CONTENT</text>
<g>
	<g>
		<line fill="none" stroke="#000000" stroke-width="2" stroke-miterlimit="10" x1="249.939" y1="237" x2="660.061" y2="237"/>
		<g>
			<polygon points="255.557,244.406 252.41,237 255.557,229.594 238,237 			"/>
		</g>
		<g>
			<polygon points="654.443,244.406 657.59,237 654.443,229.594 672,237 			"/>
		</g>
	</g>
</g>
<g>
	<g>
		<line fill="none" stroke="#000000" stroke-width="2" stroke-miterlimit="10" x1="527" y1="199.939" x2="527" y2="407.061"/>
		<g>
			<polygon points="519.594,205.557 527,202.41 534.406,205.557 527,188 			"/>
		</g>
		<g>
			<polygon points="519.594,401.443 527,404.59 534.406,401.443 527,419 			"/>
		</g>
	</g>
</g>
<g>
	<g>
		<line fill="none" stroke="#000000" stroke-width="2" stroke-miterlimit="10" x1="96.939" y1="305" x2="172.061" y2="305"/>
		<g>
			<polygon points="102.557,312.406 99.41,305 102.557,297.594 85,305 			"/>
		</g>
		<g>
			<polygon points="166.443,312.406 169.59,305 166.443,297.594 184,305 			"/>
		</g>
	</g>
</g>
<g>
	<g>
		<line fill="none" stroke="#000000" stroke-width="2" stroke-miterlimit="10" x1="330" y1="147.939" x2="330" y2="176.061"/>
		<g>
			<polygon points="322.594,153.557 330,150.41 337.406,153.557 330,136 			"/>
		</g>
		<g>
			<polygon points="322.594,170.443 330,173.59 337.406,170.443 330,188 			"/>
		</g>
	</g>
</g>
<text transform="matrix(1 0 0 1 568.999 220.9946)" font-size="21">width</text>
<text transform="matrix(1 0 0 1 542.002 346.9941)" font-size="21">height</text>
<text transform="matrix(1 0 0 1 104.0015 339.9941)" font-size="21">margin</text>
<text transform="matrix(1 0 0 1 353.0015 166.9951)" font-size="21">padding</text>
<text transform="matrix(1 0 0 1 23.0112 312.9941)" font-size="21">left</text>
<text transform="matrix(1 0 0 1 839.0088 311.9941)" font-size="21">right</text>
<text transform="matrix(1 0 0 1 427.0278 32.9888)" font-size="21">top</text>
<text transform="matrix(1 0 0 1 434.0088 591.0039)" font-size="21">bottom</text>
<text transform="matrix(1 0 0 1 244.0015 456.9951)" font-size="21">border</text>
<text transform="matrix(1 0 0 1 640.002 509.9951)" font-size="21">outline</text>
</svg>
