<svg xmlns="http://www.w3.org/2000/svg" height="500" width="500"><path d="m0 256v-256h256 256v256 256h-256-256v-256z" fill="#96642c"/><path fill="#8c5829" d="m6.0 501.0c1.0-123.0 12.0-247.0 3.0-370.0-1.0-43.0-3.0-86.0-3.0-130.0 11.0 34.0 4.0 72.0 8.0 108.0.0 95.0 8.0 190.0-.0 285.0-2.0 36.0-3.0 73.0-3.0 110.0-2.0 8.0-5.0 1.0-3.0-2.0zm35.0-25.0c-3.0-125.0-9.0-251.0.0-377.0.0-33.0-1.0-66.0 1.0-99.0.0 115.0 3.0 218.0-2.0 328.0 6.0 65.0.0 101.0 8.0 155.0 1.0 22.0-12.0 19.0-7.0-.0l.0-3.0zm10.0 32.0c-4.0-177.0-3.0-333.0-.0-496.0 14.0-3.0 1.0 33.0 5.0 44.0-12.0 156.0 5.0 302.0 1.0 447.0-.0 2.0-3.0 5.0-6.0 4.0zm12.0-6.0c4.0-39.0 2.0-79.0-2.0-118.0-6.0-89.0-6.0-179.0-1.0-268.0 1.0-34.0-.0-69.0 5.0-102.0 5.0 18.0-.0 41.0-.0 62.0-1.0 24.0-2.0 49.0-1.0 74.0 5.0-47.0 1.0-94.0 9.0-141.0-1.0 67.0-8.0 134.0-8.0 201.0-1.0 73.0 4.0 147.0 12.0 220.0 1.0 21.0.0 60.0-2.0 71.0-1.0-35.0 3.0-70.0-3.0-105.0-13.0-364.0-12.0-165.0.0 62.0-.0 10.0 2.0 45.0-7.0 43.0zm-5.0-243.0c-3.0 1.0 3.0 2.0 0 0zm33.0 251.0c4.0-77.0 2.0-155.0 6.0-233.0-22.0-60.0-14.0-125.0-10.0-187.0 8.0-22.0-8.0-74.0 12.0-79.0 4.0 40.0-7.0 81.0 7.0 120.0 11.0 25.0 13.0 53.0 12.0 81.0-4.0 56.0 3.0 127.0 11.0 190.0 3.0 28.0 2.0 56.0 5.0 84.0 1.0 13.0-11.0 25.0-9.0 4.0-1.0-29.0 2.0-59.0-3.0-88.0-20.0-2.0-10.0 36.0-16.0 51.0-3.0 18.0-.0 44.0-12.0 58.0l-2.0-.0-1.0-1.0zm12.0-6.0c6.0-17.0.0-66.0 16.0-66.0 3.0 18.0 4.0 53.0-.0 62.0-1.0-11.0 8.0-49.0-7.0-43.0-2.0 14.0.0 32.0-8.0 47.0zm32.0 2.0c6.0-76.0-4.0-152.0-12.0-228.0-3.0-43.0-3.0-86.0-.0-129.0-1.0-16.0-33.0-41.0-3.0-41.0 9.0-23.0-1.0-48.0 1.0-72.0 7.0-38.0-8.0 33.0 9.0 23.0.0-11.0 6.0-55.0 3.0-22.0-11.0 108.0-17.0 218.0 2.0 326.0 3.0 39.0 3.0 78.0 6.0 117.0-7.0 7.0 1.0 22.0-6.0 28.0zm5.0 1.0c7.0-25.0.0-52.0 10.0-76.0 3.0-13.0-8.0-54.0-1.0-54.0 6.0 42.0 4.0 86.0-4.0 128.0-.0 1.0-2.0 1.0-3.0 2.0zm10.0 2.0c7.0-26.0 4.0-53.0 11.0-79.0-4.0-88.0-24.0-176.0-23.0-259.0 3.0-29.0-8.0-60.0 4.0-88.0 2.0-22.0-4.0-50.0 5.0-68.0 15.0-25.0 3.0 23.0 3.0 32.0-8.0 70.0-1.0 117.0-3.0 213.0 17.0 65.0 21.0 133.0 18.0 196.0-2.0 12.0-4.0 57.0-16.0 53.0zm38.0-6.0c5.0-82.0 8.0-165.0-1.0-248.0-2.0 21.0-18.0 19.0-16.0-1.0-8.0-44.0-17.0-91.0-4.0-136.0 6.0-29.0 16.0-58.0 18.0-89.0-4.0 8.0-14.0 46.0-8.0 18.0-3.0-11.0 15.0-52.0 14.0-21.0-2.0 9.0-9.0 45.0-1.0 39.0 2.0-19.0-.0-69.0 32.0-55.0 3.0 35.0 4.0 71.0 13.0 106.0-.0 24.0 2.0 57.0-12.0 76.0-8.0-17.0 1.0-45.0-13.0-58.0-18.0 32.0-4.0 49.0-7.0 106.0-14.0 95.0 24.0 177.0 6.0 266.0-3.0-19.0-1.0 10.0-6.0-8.0-3.0-27.0 4.0-55.0-4.0-83.0-1.0 29.0 7.0 61.0-3.0 90.0-5.0 7.0-4.0 6.0-4.0-.0zm2.0 2.0c-3.0 1.0 3.0 2.0 0 0zm7.0-183.0c.0-40.0-4.0-92.0-7.0-138.0-6.0 8.0-7.0 49.0-16.0 20.0-13.0-32.0 1.0-66.0 11.0-97.0 4.0-12.0-7.0-23.0-5.0-5.0-8.0 33.0-16.0 68.0-10.0 102.0-6.0 21.0 20.0 33.0 21.0 11.0 6.0 21.0 2.0 45.0 6.0 67.0 1.0 25.0 1.0 51.0 1.0 76.0 1.0-13.0.0-26.0 1.0-39.0zm-19.0-90.0c-2.0-7.0 3.0 4.0 0 0zm33.0 271.0c-7.0-11.0 13.0-37.0 10.0-11.0 1.0 7.0-5.0 32.0-10.0 11.0zm13.0 8.0c3.0-36.0-7.0-71.0-14.0-106.0-6.0-74.0-10.0-149.0.0-223.0 6.0 5.0 5.0 49.0 14.0 29.0-1.0-19.0 22.0-22.0 14.0.0 5.0 87.0 3.0 174.0 7.0 262.0-6.0-87.0-2.0-175.0-10.0-262.0-14.0-6.0-9.0 44.0-22.0 17.0-12.0 38.0-6.0 80.0-6.0 120.0 3.0 53.0 20.0 105.0 17.0 159.0zm25.0-26.0c-4.0-65.0-5.0-202.0-5.0-303.0 7.0-59.0 10.0-119.0 5.0-179.0 12.0 8.0 2.0 56.0 5.0 21.0-1.0-17.0 3.0-18.0 2.0-.0-1.0 61.0 2.0 123.0-3.0 184.0-2.0 26.0 3.0 52.0-1.0 79.0-1.0 73.0 5.0 147.0 4.0 220.0-11.0 12.0-5.0-16.0-7.0-21.0zm6.0-8c-1.0-14.0.0-33.0-3.0-45.0 1.0 15.0-1.0 30.0 3.0 45.0zm13.0 33c-4.0-78.0-1.0-158.0-.0-254.0 5.0-69.0 11.0-139.0 2.0-208.0-2.0-11.0 1.0-58.0 3.0-26.0 2.0 39.0 4.0 78.0 4.0 118.0.0 24.0-.0 49.0-.0 74.0 12.0-26.0 3.0-57.0 6.0-86.0-2.0-34.0-3.0-69.0-7.0-104.0 9.0-28.0 11.0 17.0 11.0 27.0 9.0 167.0-13.0 310.0-4.0 461.0-22.0-95.0.0-202.0-1.0-292.0-13.0 34.0-3.0 66.0-11.0 122.0-1.0 40.0-.0 80.0 3.0 120.0-11.0 17.0 13.0 33.0-5.0 49.0zm41.0.0c-1.0-42.0-12.0-83.0-9.0-126.0-2.0-122.0 9.0-244.0 9.0-366.0 9.0-13.0 1.0 30.0 2.0 38.0-2.0 105.0-12.0 233.0-7.0 351.0-3.0 29.0 14.0 48.0 10.0 76.0-.0 8.0 7.0 22.0-5.0 25.0zm10.0-2.0c5.0-44.0-4.0-88.0-12.0-131.0-5.0-58.0-1.0-116.0.0-175.0 6.0 32.0-.0 66.0 2.0 99.0-.0 38.0 6.0 77.0 13.0 115.0 2.0 30.0 2.0 62.0-1.0 92.0l-1.0.0zm7.0 3.0c2.0-62.0 1.0-126.0-11.0-188.0-5.0-90.0-3.0-182.0 7.0-272.0-.0-11.0-2.0-49.0 14.0-37.0-1.0 44.0-10.0 87.0-15.0 131.0-4.0 150.0-2.0 145.0 9.0 191.0 2.0 36.0 5.0 72.0 5.0 108.0-1.0 22.0 7.0 53.0-9.0 66.0l-.0.0-.0.0zm15.0-68.0c1.0-122.0-16.0-245.0.0-367.0.0-16.0-1.0-60.0 3.0-59.0-4.0 111.0-10.0 222.0-2.0 334.0 1.0 53.0 3.0 107.0 2.0 161.0-11.0-21.0-.0-46.0-4.0-69.0zm37.0 65.0c-.0-36.0 2.0-73.0 6.0-109.0 29.0 11.0 3.0 49.0 9.0 72.0-.0 10.0 4.0 45.0-15.0 37.0zm22.0 0c2.0-12.0 5.0-55.0 5.0-21.0-.0 7.0-1.0 14.0-5.0 21.0zm31.0-3c-1.0-128.0 20.0-257.0 4.0-385.0-6.0-38.0-5.0-77.0-3.0-116.0 10.0 46.0 1.0 96.0 9.0 110.0 8.0 103 2.0 206.0 1.0 309.0-5.0 27.0-2.0 63.0-9.0 85.0zm7.0-5c4.0-33.0 14.0-66.0 8.0-100.0-1.0-81.0.0-162.0.0-243.0 1.0 110.0 1.0 221.0 2.0 332.0.0 7.0-13.0 33.0-10.0 11.0zm8.0-125.0c-3.0 1.0 3.0 2.0 0 0zm16.0 115.0c5.0-7.0-5.0-25.0-3.0-6.0 4.0-67.0 11.0-136.0-.0-203.0-3.0-59.0 2.0-118.0 1.0-177.0 2.0-31.0-4.0-66.0 4.0-96.0 24.0-17.0 47.0 13.0 33.0 35.0 5.0 142.0 3.0 284.0 2.0 427.0 4.0 20.0-6.0 47.0-28.0 44.0-8.0-3.0-11.0-13.0-9.0-22.0zm24.0-258.0c2.0-63.0.0-127.0-4.0-191.0-12.0 24.0-2.0 54.0-7.0 80.0.0 39.0 4.0 78.0 9.0 118.0.0-2.0 1.0-4.0 1.0-7.0zm-4.0-9.0c-1.0-5.0 2.0 1.0 0 0zm17.0-96.0c-3.0 1.0 3.0 2.0 0 0zm0-4c-3.0 1.0 3.0 2.0 0 0zm-189.0 385.0c-1.0-5.0 2.0 1.0 0 0zm-106.0-16.0c-5.0-10.0 5.0-.0 0 0zm155.0-15.0c-13.0 2.0 5.0-20.0-9.0-12.0-2.0-98.0-7.0-196.0-6.0-294.0 1.0-25.0 4.0-51.0 3.0-76.0 15.0-19.0 10.0 23.0 13.0 34.0 1.0 25.0 5.0 50.0 11.0 74.0 14.0 57.0 19.0-58.0 22.0-77.0 4.0-19.0-1.0-48.0 13.0-62.0 8.0 21.0 6.0 46.0 11.0 68.0 9.0 76.0 12.0 154.0-2.0 230.0-14.0-28.0-14.0-63.0-23.0-94.0 6.0 20.0-10.0-17.0-10.0 7.0-5.0 40.0-10.0 81.0-16.0 121.0-3.0 27.0-4.0 54.0-6.0 81.0l-1.0-.0zm-5.0-86.0c-3.0 1.0 3.0 2.0 0 0zm12.0-136.0c-4.0-32.0-7.0-64.0-13.0-96.0-10.0 32.0-4.0 67.0-4.0 101.0 1.0 28.0.0 58.0 4.0 86.0 20.0 13.0 14.0-83.0 13.0-91.0zm50.0 50.0c10.0-66.0 3.0-134.0-8.0-200.0-20.0 27.0-8.0 63.0-14.0 95.0 1.0 35.0 6.0 72.0 22.0 104.0zm-276.0 172.0c-1.0-7.0 3.0 2.0 0 0zm192.0-13.0c1.0-13.0 1.0 6.0 0 0zm88.0-23.0c-2.0-14.0 4.0-18.0 2.0-.0.0 12.0-3.0 21.0-2.0.0zm-20.0 16.0c-4.0-12.0 2.0-39.0 1.0-10.0.0 3.0-.0 7.0-1.0 10.0zm-294.0-7.0c-1.0-6.0 3.0 2.0 0 0zm161.0-5.0c-.0-7.0 1.0 4.0 0 0zm.0-7.0c.0-8.0.0 8.0 0 0zm-145.0-1.0c-1.0-5.0 2.0 1.0 0 0zm145.0-6.0c.0-6.0.0 6.0 0 0zm-272.0-34.0c9.0-119.0-1.0-102.0 1.0-3.0-.0 8.0-2.0 21.0-1.0 3.0zm225.0 7.0c.0-18.0-12.0-67.0.0-69.0 5.0 22.0 10.0 44.0-.0 69.0zm-187.0-17.0c-2.0-24.0 3.0-10.0.0 5.0zm4.0-23.0c-6.0-4.0 2.0-6.0 0 0zm94.0-15.0c-7.0-51.0-7.0-103.0-9.0-155.0-.0-54.0-4.0-66.0 9.0-172.0 6.0 12.0-7.0 51.0-5.0 73.0-2.0 54.0-1.0 109.0-.0 163.0 13.0 26.0-19.0 73.0 5.0 90.0zm-101-66.0c-27.0 158.0-13.0 79.0 0 0zm148.0-14.0c-7.0-5.0 2.0-7.0 0 0zm92.0-30.0c-1.0-5.0 2.0 1.0 0 0zm1-15c-1.0-5.0 2.0 1.0 0 0zm-47-5c-1.0-5.0 2.0 1.0 0 0zm200.0-14.0c3.0-3.0-.0 6.0 0 0zm-123.0-32.0c1.0-51.0 3.0-103.0 10.0-154.0 8.0 27.0-7.0 55.0-5.0 83.0-1.0 28.0-1.0 57.0-5.0 86.0-.0-5.0.0-10.0.0-15.0zm197.0-8.0c-1.0-5.0 2.0 1.0 0 0zm-56.0-1.0c-1.0-38.0-9.0-59.0-7.0-142.0 13.0 3.0 2.0 39.0 6.0 55.0.0 29.0 4.0 58.0.0 87.0zm-2.0-93.0c-3.0 1.0 3.0 2.0 0 0zm58.0 86.0c.0-8.0.0 8.0 0 0zm-296.0-9.0c-3.0-13.0 3.0 4.0 0 0zm29.0-1.0c-5.0-40.0-10.0-80.0-15.0-121.0 11.0 19.0 5.0 46.0 9.0 68.0-1.0 13.0 13.0 28.0 13.0 6.0 3.0-19.0-3.0-59.0.0-66.0 1.0 37.0 4.0 75.0-5.0 112.0 2.0-9.0-1.0.0-3.0 1.0zm96.0-.0c.0-21.0 3.0-67.0 6.0-72.0-.0 24.0-3.0 48.0-6.0 72.0zm-180.0-5.0c.0-12.0 10.0-40.0 5.0-11.0-.0 4.0-2.0 8.0-5.0 11.0zm349.0-14.0c1.0-8.0 1.0 9.0 0 0zm-264.0-10.0c-2.0-4.0 5.0 1.0 0 0zm265.0-10.0c.0-9.0.0 6.0 0 0zm-400.0-6.0c-6.0-41.0 3.0-106.0 7.0-32.0-1.0 10.0-1.0 22.0-7.0 32.0zm278.0-13.0c.0-18.0-14.0-66.0 8.0-64.0 6.0 21.0-7.0 42.0-8.0 64.0zm33.0-.0c-1.0-5.0 2.0 1.0 0 0zm-193.0-5.0c2.0-4.0.0 7.0 0 0zm-111.0-13.0c-1.0-5.0 2.0 1.0 0 0zm211-26c-1.0-5.0 2.0 1.0 0 0z"/></svg>